<?xml version="1.0" encoding="utf-8"?>
<!-- Generator: Adobe Illustrator 18.1.0, SVG Export Plug-In . SVG Version: 6.00 Build 0)  -->
<svg version="1.1" id="Layer_1" xmlns="http://www.w3.org/2000/svg" xmlns:xlink="http://www.w3.org/1999/xlink" x="0px" y="0px"
	 viewBox="0 0 332.484 332.484" enable-background="new 0 0 332.484 332.484" xml:space="preserve">
<g>
	<g>
		<path fill="#010101" d="M273.603,248.513H58.883c-5.833,0-10.579-5.065-10.579-11.292V100.122c0-6.227,4.746-11.292,10.579-11.292
			h214.72c5.833,0,10.579,5.065,10.579,11.292v137.099C284.182,243.447,279.435,248.513,273.603,248.513z M58.883,95.83
			c-1.974,0-3.579,1.926-3.579,4.292v137.099c0,2.366,1.605,4.292,3.579,4.292h214.72c1.974,0,3.579-1.926,3.579-4.292V100.122
			c0-2.366-1.605-4.292-3.579-4.292H58.883z"/>
		<rect x="51.804" y="116.487" fill="#010101" width="228.878" height="7"/>
		<path fill="#010101" d="M68.938,108.863h-0.147c-1.933,0-3.5-1.567-3.5-3.5c0-1.933,1.567-3.5,3.5-3.5h0.147
			c1.933,0,3.5,1.567,3.5,3.5C72.438,107.296,70.871,108.863,68.938,108.863z"/>
		<path fill="#010101" d="M85.326,108.863H85.18c-1.933,0-3.5-1.567-3.5-3.5c0-1.933,1.567-3.5,3.5-3.5h0.146
			c1.933,0,3.5,1.567,3.5,3.5C88.826,107.296,87.259,108.863,85.326,108.863z"/>
		<path fill="#010101" d="M101.715,108.863h-0.147c-1.933,0-3.5-1.567-3.5-3.5c0-1.933,1.567-3.5,3.5-3.5h0.147
			c1.933,0,3.5,1.567,3.5,3.5C105.215,107.296,103.647,108.863,101.715,108.863z"/>
	</g>
	<path fill="#010101" d="M240.836,162.382H91.648c-3.543,0-6.425-2.804-6.425-6.251v-15.827c0-3.447,2.882-6.251,6.425-6.251
		h149.188c3.543,0,6.426,2.804,6.426,6.251v15.827C247.262,159.578,244.379,162.382,240.836,162.382z M92.224,155.382h148.038
		v-14.329H92.224V155.382z"/>
	<path fill="#010101" d="M244.372,224.09c0,1.666-0.655,3.018-1.463,3.018h-74.565c-0.807,0-1.461-1.352-1.461-3.018v-17.369
		c0-1.666,0.654-3.019,1.461-3.019h74.565c0.808,0,1.463,1.353,1.463,3.019V224.09z"/>
	<path fill="#010101" d="M240.225,195.976H91.038c-3.543,0-6.425-2.804-6.425-6.251v-15.827c0-3.447,2.882-6.251,6.425-6.251
		h149.186c3.543,0,6.426,2.804,6.426,6.251v15.827C246.65,193.172,243.768,195.976,240.225,195.976z M91.613,188.976H239.65v-14.329
		H91.613V188.976z"/>
	<rect x="94.75" y="142.504" fill="#010101" width="7" height="10.949"/>
	<path fill="#010101" d="M166.242,7c42.535,0,82.524,16.564,112.602,46.641c30.076,30.077,46.641,70.066,46.641,112.602
		c0,42.535-16.565,82.524-46.641,112.602c-30.077,30.076-70.067,46.641-112.602,46.641c-42.535,0-82.524-16.565-112.602-46.641
		C23.564,248.767,7,208.777,7,166.242c0-42.535,16.564-82.524,46.641-112.602C83.718,23.564,123.707,7,166.242,7 M166.242,0
		C74.429,0,0,74.429,0,166.242s74.429,166.242,166.242,166.242s166.242-74.429,166.242-166.242S258.056,0,166.242,0L166.242,0z"/>
</g>
</svg>
